<svg height="39" viewBox="0 0 45 39" width="45" xmlns="http://www.w3.org/2000/svg"><path d="m25.5686842 1.41430648c-1.8915789-1.88574197-4.9842105-1.88574197-6.8747368 0l-17.27684214 17.23101982c-1.88947368 1.8867919-1.88947368 4.9747469 0 6.858389l12.32842104 12.2972216c.8589474.7454771 1.98 1.1990631 3.2084211 1.1990631h10.3557894c1.3494737 0 2.571579-.5480831 3.4536843-1.4279561l12.0894736-12.057829c1.891579-1.8857419 1.891579-4.9747469 0-6.8583889zm-.4810526 31.55727242-1.7242105 1.7231579c-.1263158.1273685-.3010527.2052632-.4947369.2052632h-1.4757895c-.1747368 0-.3347368-.0652632-.4578947-.1715789l-1.7578947-1.7589474c-.2694737-.2684211-.2694737-.711579 0-.9810526l2.4642105-2.4642106c.2694737-.2715789.7115789-.2715789.9810526 0l2.4652632 2.4652632c.2705263.2694737.2705263.7115789 0 .9821052zm0-10.3421052-6.8936842 6.8968421c-.1273685.1263158-.3010527.2021053-.4936842.2021053h-1.4778948c-.1747368 0-.3357895-.0631579-.4589473-.1694737l-1.7568422-1.7578948c-.2694736-.2705263-.2694736-.7126315 0-.9831579l7.6347369-7.6347368c.2694737-.2694737.7115789-.2694737.9810526 0l2.4652632 2.468421c.2705263.2684211.2705263.7084211 0 .9778948zm0-10.3389474-12.0642105 12.0642105c-.1263158.1273685-.3010527.2042106-.4936843.2042106h-1.4768421c-.1747368 0-.3357894-.0642106-.4578947-.1705263l-1.75894737-1.76c-.26947368-.2684211-.26947368-.7105264 0-.9789474l12.80526317-12.80526317c.2694737-.27052632.7105263-.27052632.9810526 0l2.4652632 2.46526317c.2705263.2694737.2705263.7126316 0 .9810526z" fill-rule="evenodd"/></svg>