<?xml version="1.0" encoding="UTF-8" standalone="no"?>
<svg width="45px" height="39px" viewBox="0 0 45 39" version="1.1" xmlns="http://www.w3.org/2000/svg" xmlns:xlink="http://www.w3.org/1999/xlink" xmlns:sketch="http://www.bohemiancoding.com/sketch/ns">
    <!-- Generator: Sketch 3.3.3 (12072) - http://www.bohemiancoding.com/sketch -->
    <title>Imported Layers Copy</title>
    <desc>Created with Sketch.</desc>
    <defs></defs>
    <g id="feedly-elements" stroke="none" stroke-width="1" fill="none" fill-rule="evenodd" sketch:type="MSPage">
        <path d="M25.5686842,1.41430648 C23.6771053,-0.471435494 20.5844737,-0.471435494 18.6939474,1.41430648 L1.41710526,18.6453263 C-0.472368421,20.5321182 -0.472368421,23.6200732 1.41710526,25.5037153 L13.7455263,37.8009369 C14.6044737,38.546414 15.7255263,39 16.9539474,39 L27.3097368,39 C28.6592105,39 29.8813158,38.4519169 30.7634211,37.5720439 L42.8528947,25.5142149 C44.7444737,23.628473 44.7444737,20.539468 42.8528947,18.655826 L25.5686842,1.41430648 L25.5686842,1.41430648 Z M25.0876316,32.9715789 L23.3634211,34.6947368 C23.2371053,34.8221053 23.0623684,34.9 22.8686842,34.9 L21.3928947,34.9 C21.2181579,34.9 21.0581579,34.8347368 20.935,34.7284211 L19.1771053,32.9694737 C18.9076316,32.7010526 18.9076316,32.2578947 19.1771053,31.9884211 L21.6413158,29.5242105 C21.9107895,29.2526316 22.3528947,29.2526316 22.6223684,29.5242105 L25.0876316,31.9894737 C25.3581579,32.2589474 25.3581579,32.7010526 25.0876316,32.9715789 L25.0876316,32.9715789 Z M25.0876316,22.6294737 L18.1939474,29.5263158 C18.0665789,29.6526316 17.8928947,29.7284211 17.7002632,29.7284211 L16.2223684,29.7284211 C16.0476316,29.7284211 15.8865789,29.6652632 15.7634211,29.5589474 L14.0065789,27.8010526 C13.7371053,27.5305263 13.7371053,27.0884211 14.0065789,26.8178947 L21.6413158,19.1831579 C21.9107895,18.9136842 22.3528947,18.9136842 22.6223684,19.1831579 L25.0876316,21.6515789 C25.3581579,21.92 25.3581579,22.36 25.0876316,22.6294737 L25.0876316,22.6294737 Z M25.0876316,12.2905263 L13.0234211,24.3547368 C12.8971053,24.4821053 12.7223684,24.5589474 12.5297368,24.5589474 L11.0528947,24.5589474 C10.8781579,24.5589474 10.7171053,24.4947368 10.595,24.3884211 L8.83605263,22.6284211 C8.56657895,22.36 8.56657895,21.9178947 8.83605263,21.6494737 L21.6413158,8.84421053 C21.9107895,8.57368421 22.3518421,8.57368421 22.6223684,8.84421053 L25.0876316,11.3094737 C25.3581579,11.5789474 25.3581579,12.0221053 25.0876316,12.2905263 L25.0876316,12.2905263 Z" id="Imported-Layers-Copy" fill="#000000" sketch:type="MSShapeGroup"></path>
    </g>
</svg>